#!OML:ASF F:\VICON\USERDATA\INSTALL\rory3\rory3.ASF
:FULLY-SPECIFIED
:DEGREES
106
root 0.4141587062069098 17.74741565981922 50.83446189528579 -4.003597917589003 0.24108582648131782 -0.929793491001379
lfemur -0.8193779932651717 -2.90038555342349 -24.967302848145053
ltibia 34.83038110769502
lfoot -7.222902575881155 -2.5143743959430633
ltoes -8.213759118336625
rfemur -21.796279804194434 -0.019801731690544333 22.483939602958475
rtibia 42.77427249180508
rfoot -4.075901714210538 -7.222622728713285
rtoes 3.1161922268690647
lowerback 11.315339165337532 0.44385371501310145 -0.4628727774734436
upperback 0.4312603104192289 0.7105499553910681 1.3816972153166587
thorax -5.983525589937812 0.4209980670391804 1.5080031857526173
lowerneck -16.660882824359167 -3.231953411587411 -2.257568983519982
upperneck 20.667977794935542 -4.4137645376708665 2.391444383252081
head 9.282749371015178 -2.0665126253572557 0.4949524624901262
lclavicle 2.9992450943793e-16 5.58984389075017e-17
lhumerus -30.840770751128638 5.690384924324572 80.28242211947585
lradius 25.386900485208812
lwrist 8.19052438733861
lhand -29.168465248007283 20.006590870017988
lfingers 7.125020000000001
lthumb -2.3681660613365993 50.42937710515302
rclavicle 2.980854383012949e-16 5.457783818959473e-17
rhumerus -30.839353693794774 -20.800099278853946 -78.07285695058498
rradius 28.195572862235736
rwrist 3.389282329116483
rhand -18.12106666574006 23.203647998682904
rfingers 7.125020000000001
rthumb 7.987327677734716 -7.141712972537524
107
root 0.3947759450061332 17.72383106720193 51.73338492213574 -3.6732400722157657 0.5896174566184385 -0.6885752436202073
lfemur 2.0098084542045767 -2.75812363438763 -25.274782673919315
ltibia 33.81799618007993
lfoot -6.578011655565019 -2.596808925258239
ltoes -8.828791282641983
rfemur -22.530299126095347 0.3504719540229533 22.48910562127525
rtibia 39.808658639267364
rfoot -4.335989932157825 -7.264963194554003
rtoes 3.4959261062228695
lowerback 11.31944973736302 0.2301140943388749 -0.8757851031859893
upperback 0.4584069469254614 0.4709091382158463 1.4391172577130624
thorax -5.957740697902432 0.318047534852938 1.7418029382877593
lowerneck -16.68993158982505 -3.2405019427209334 -2.2551122814788003
upperneck 20.67524310121414 -4.376786935456578 2.417901706228946
head 9.304172968937365 -2.055229683710564 0.5120691266234945
lclavicle 2.9992450943793e-16 5.58984389075017e-17
lhumerus -29.283737305533972 3.9707752662206914 80.71985084664985
lradius 25.509135059199306
lwrist 8.186566802317392
lhand -29.113897416011376 20.194952644363468
lfingers 7.125020000000001
lthumb -2.1910816993016256 50.98616397494078
rclavicle 2.980854383012949e-16 5.457783818959473e-17
rhumerus -31.729119297677823 -20.75586459154321 -77.75434005662713
rradius 27.952002625676155
rwrist 3.679752787518165
rhand -18.11591068106632 23.210251312103516
rfingers 7.125020000000001
rthumb 7.92044419355752 -7.262409225490298
108
root 0.3647966456758504 17.69185859541482 52.153877534790595 -3.403156647841676 0.7927054721392021 -0.5915121280664479
lfemur 4.452453098440526 -2.5128044623326273 -25.35935508932504
ltibia 32.3777013899388
lfoot -5.5527777891598955 -2.741121254297752
ltoes -9.248284665732143
rfemur -23.732289301196104 0.422265653441517 22.386122333641993
rtibia 36.65098959532033
rfoot -4.763228132342087 -7.62719462383596
rtoes 3.4216154666928036
lowerback 11.277987777773275 0.021905674647715506 -1.2565809603677327
upperback 0.4699413150481719 0.2352179324524924 1.4957898431591419
thorax -5.900438940364487 0.2755875905399115 2.0505021281681937
lowerneck -16.70060473270839 -3.242970221204849 -2.2381981212771622
upperneck 20.686021621461286 -4.330330162213893 2.448817460157679
head 9.315009376078997 -2.0473002820606765 0.5155654005022094
lclavicle 2.9992450943793e-16 5.58984389075017e-17
lhumerus -27.82791879630827 2.2550045057017183 80.96238871781851
lradius 25.54118839888672
lwrist 7.988318725042158
lhand -29.00988765733532 20.38169601901854
lfingers 7.125020000000001
lthumb -2.3105316799800852 50.568452478576035
rclavicle 2.980854383012949e-16 5.457783818959473e-17
rhumerus -32.503237229257444 -20.744457783866615 -77.4441390632001
rradius 27.75550785371939
rwrist 3.8737316368494072
rhand -18.098880345268213 23.225914646202767
rfingers 7.125020000000001
rthumb 7.916420940201727 -7.24340528571336
109
root 0.33451189082754995 17.65982669441821 52.73097519111676 -3.18959897452696 0.9350580214264207 -0.5400140367214052
lfemur 7.3277601527464595 -2.196022481107957 -25.317520079396765
ltibia 30.926031833836003
lfoot -5.159894919842615 -3.1215586911695374
ltoes -8.910172039427817
rfemur -23.509454711793563 0.9372454214102404 22.851558235512556
rtibia 34.47286859586589
rfoot -5.0928618759711455 -8.136498648339375
rtoes 3.331999160133866
lowerback 11.19002774210862 -0.16799569687687063 -1.5858601815636855
upperback 0.45245765734546756 -0.03608070762187365 1.5349387122398435
thorax -5.8789576871521625 0.20312324541209514 2.1431550496187803
lowerneck -16.652918267453455 -3.222056775958259 -2.180161003701598
upperneck 20.677058365512693 -4.299233014373918 2.4434276538516633
head 9.318342092090745 -2.040189974771906 0.5148844806215604
lclavicle 2.9992450943793e-16 5.58984389075017e-17
lhumerus -26.46664836613524 0.7264754380459864 81.04125516738493
lradius 25.547725394216187
lwrist 7.851432264186206
lhand -28.931779504756765 20.580127777357472
lfingers 7.125020000000001
lthumb -2.1701050625578073 51.03847547491278
rclavicle 2.980854383012949e-16 5.457783818959473e-17
rhumerus -33.24260142715093 -20.94201552620249 -77.14366986343894
rradius 27.633650991014697
rwrist 4.078271643237254
rhand -18.090833049992245 23.22839753268361
rfingers 7.125020000000001
rthumb 7.934394294243289 -7.161264025421665
110
root 0.2991708721841229 17.630415521560263 52.87391968518875 -3.0839635130313665 0.9626707378434515 -0.6430573068502397
lfemur 9.513016295780663 -2.388720172299315 -25.560469672233165
ltibia 29.836970484340053
lfoot -4.181341028731579 -2.810299123784871
ltoes -8.779287170370182
rfemur -23.853451666888112 1.4421984521786126 22.808234685889673
rtibia 33.18559896203254
rfoot -5.303386222057494 -8.500722903495973
rtoes 3.4520268571048405
lowerback 11.073770757912747 -0.3249029914679966 -1.8182682287545158
upperback 0.42742822513833306 -0.24471322405903884 1.5864943260544395
thorax -5.848547268415203 0.1205763543239937 2.272381680486003
lowerneck -16.601786618102203 -3.2065456829464782 -2.1236155693741554
upperneck 20.656328409033705 -4.288396454490648 2.422867688588637
head 9.32149051140176 -2.03201763762492 0.5148202484021841
lclavicle 2.9992450943793e-16 5.58984389075017e-17
lhumerus -25.226300108457508 -0.4833794638328057 81.02208860525535
lradius 25.533509073949983
lwrist 7.69749869400229
lhand -28.917970309057704 20.544726233326866
lfingers 7.125020000000001
lthumb -2.326472057675736 50.530964051742245
rclavicle 2.980854383012949e-16 5.457783818959473e-17
rhumerus -33.92890614736814 -21.31816631182036 -76.77900681075093
rradius 27.527178393499256
rwrist 4.283890058227611
rhand -18.11334543304375 23.183436319121167
rfingers 7.125020000000001
rthumb 8.014809507481615 -6.973278904036805
111
root 0.27170139572535934 17.615453894355987 53.16128612127747 -3.0484803223903723 0.9698485660333648 -0.8204942986844266
lfemur 11.2206213690995 -3.085201261851867 -25.566327990176127
ltibia 29.71262913105517
lfoot -4.035349365568558 -3.190175028859483
ltoes -8.997558844120288
rfemur -22.77897457037332 2.249600114887833 23.365773900510128
rtibia 32.34639484382842
rfoot -5.952354849474453 -8.84242248860301
rtoes 3.18436103245849
lowerback 10.93498602042919 -0.461116488069098 -1.956620655007584
upperback 0.4181346001243676 -0.2755923171310515 1.6886803767349283
thorax -5.80725241658155 0.09249567953395135 2.445172340361273
lowerneck -16.55969238127408 -3.1984793812160532 -2.0712709167190515
upperneck 20.650664008833235 -4.261016160004955 2.4350938073863335
head 9.304793125232731 -2.0334411028335593 0.5025172077838767
lclavicle 2.9992450943793e-16 5.58984389075017e-17
lhumerus -24.27596920548467 -1.3821073118779261 80.93869793280858
lradius 25.536181075568454
lwrist 7.599397743137544
lhand -28.93653352137649 20.53987860505402
lfingers 7.125020000000001
lthumb -2.1967898695999724 50.97849011528079
rclavicle 2.980854383012949e-16 5.457783818959473e-17
rhumerus -34.62181537634068 -21.905931529304194 -76.341681552494
rradius 27.373917234340308
rwrist 4.4278025317820235
rhand -18.08943386638698 23.214026830771427
rfingers 7.125020000000001
rthumb 8.008357266417482 -6.962889165572072
